<svg width="678" height="225" viewBox="0 0 678 225" xmlns="http://www.w3.org/2000/svg"><title>coca-cola</title><g fill="#E61D2A" fill-rule="nonzero"><path d="M260.469 193.9627c-25.2743-16.272-59.2743-18.984-114.3363-3.9174-58.6725 13.8614-78.23 22.6-104.1062 4.8214-9.9292-8.7387-13.5398-22.9014-10.8318-43.0907 6.0177-33.1467 22.5664-64.7867 52.053-100.0427C99.7966 33.352 114.8408 17.6827 135 11.3547c15.3451-3.9174 13.8407 8.136 12.0354 9.944-2.1062 0-5.416.3013-7.823 2.1093-2.1062 1.5067-7.823 6.9307-8.1239 13.8613-.3009 10.848 10.531 8.4374 15.3451 2.712 5.115-6.6293 12.6372-19.2853 6.9204-31.0373-2.4071-4.2187-6.9204-7.232-12.3363-8.136-18.354-1.2053-35.5044 7.8347-51.4513 17.4773C54.9646 42.392 27.2832 75.84 11.6372 112.3013 2.6106 134.2987-5.5133 165.9387 6.823 191.552c9.6283 17.7787 29.1858 27.4213 52.6549 25.312 16.5486-1.808 36.407-6.9307 49.646-10.2453 13.5398-3.3147 81.8407-26.8187 104.407 14.1626 0 0 7.5222-14.464 26.177-14.7653 15.3452-1.5067 37.6107 4.52 53.8585 16.272-5.115-8.136-20.1593-20.1893-33.0974-28.3253z"/><path d="M153.0531 55.952c-12.938-8.4373-38.5133 7.8347-59.2743 35.256-18.9558 24.7093-27.0797 53.6373-18.0531 66.896 13.2389 15.6693 37.6106-7.232 48.1416-19.2853l1.2035-1.5067c7.2212-7.5333 12.6372-16.8747 17.7522-25.6133 0 0 4.8142-8.136 5.115-8.4374 3.0089-.6026 6.6195-1.5066 10.832-2.712 0 .3014-15.6461 26.5174-14.1417 39.4747.6018 3.9173 0 18.3813 14.1416 22.9013 18.9558 3.0134 34-11.4506 47.239-24.408 0 0 2.407-2.1093 3.6106-3.3146-.301 1.2053-.6018 3.0133-.6018 3.0133-5.416 19.2853 1.8053 23.2027 6.6195 24.7093 14.1416 4.2187 30.9911-16.272 30.9911-16.272-.3009 6.328-1.8053 11.752 5.115 15.9707 6.3186 2.4107 12.9381-1.2053 17.7523-4.52 17.7522-12.656 31.8938-32.2427 43.6283-49.1173h-7.2212s-18.0531 26.216-29.7877 31.9413c0 0-2.1062 1.2053-3.3097.3013-1.5044-1.2053-.9026-3.9173 0-6.0266l45.4336-78.648h-21.3628l-2.407 3.9173s-.6018-.904-.6018-1.2053c-13.239-18.3814-43.3275 9.944-65.8938 42.488-8.7257 12.656-19.8585 26.8186-31.292 37.064 0 0-16.8496 15.6693-24.3718 4.52-2.708-4.8214-1.8053-11.4507-.3008-15.9707 8.4247-24.1067 23.168-46.104 39.7168-59.0613 4.8141-3.616 9.6283-4.8214 12.3362-3.0134 2.4071 1.5067 2.708 4.8214 1.2036 7.232-3.9115 0-6.9204.904-9.3274 3.616-4.8142 5.1227-6.6195 10.2454-5.115 15.0667 7.522 10.848 22.8672-10.5467 22.2654-23.8053-.3009-4.8214-2.708-9.04-6.6195-11.4507-5.7168-3.3147-14.1416-2.4107-19.5575.3013-7.5221 2.712-18.9557 12.656-25.8761 20.1894-8.7257 9.3413-23.1681 19.888-27.9823 18.984.6018-4.2187 13.239-29.832 0-39.4747zm103.2035 37.6667c4.2124-5.7254 16.2478-21.0934 19.2567-23.8054 9.9292-8.7386 13.8407-4.8213 14.1416-2.1093-9.3275 16.5733-20.1593 35.5573-30.3894 52.7333l-3.3097 4.8214c-4.5133 6.9306-9.0266 12.9573-16.5487 17.176-1.2036.3013-2.708.3013-3.9115-.3014-1.5044-.904-2.1062-2.4106-1.8053-4.2186.3008-5.424 5.7168-21.696 22.5663-44.296zM139.8142 103.864l-.301.6027-9.3274 15.0666c-5.7168 7.5334-12.6371 16.8747-21.3628 21.3947-2.708.904-6.3186 1.5067-8.1239-.904-3.9115-4.52-1.8053-11.1493-.3009-16.272l.6018-1.808c4.5133-12.656 12.0354-23.8053 19.2566-34.0507h.301v.3014c4.5132 8.7386 12.938 12.656 19.2566 14.464v.3013c.3008 0 .3008.3013 0 .904zm9.0265-18.08l-4.2124 9.6427c-.6018.6026-1.5044.3013-2.708 0l-1.8053-.3014c-5.7168-1.808-10.23-5.7253-11.4336-10.2453-1.8053-9.04 5.7168-15.9707 9.0266-18.3813 3.3097-2.1094 8.1239-3.3147 11.1327-1.2054 1.8053 2.1094 2.407 4.8214 2.407 7.8347 0 3.9173-1.2035 8.4373-2.407 12.656zM418.7345 114.712c-2.1062-4.52-6.9203-7.232-12.0354-6.9307-16.8495 1.5067-33.3982 15.368-42.1239 35.5574-4.5133 10.2453-6.9203 18.6826-8.7256 32.2426 5.115-6.0266 15.9469-15.9706 28.2831-21.3946 0 0 1.8054-12.9574 10.2301-24.408 3.3098-4.8214 9.6284-12.3547 16.8496-10.5467 6.3186 2.1093 4.2124 19.5867-4.2124 36.4613-6.3186 12.3547-15.646 24.7094-25.2743 33.448-8.4248 7.232-21.062 15.9707-31.8938 9.04-6.9204-4.2186-10.531-12.656-9.6284-23.8053 3.3098-31.3387 17.4514-57.856 37.9115-88.2907C399.177 57.76 422.3451 28.832 453.3363 13.464c6.3186-3.3147 12.3363-3.9173 17.4513-2.1093 0 0-29.1858 15.9706-43.3274 45.8026-3.6106 7.5334-8.4248 17.7787-3.6106 26.8187 2.708 4.8213 7.2212 5.1227 10.8318 4.8213 17.1505-3.9173 28.2832-19.888 37.3098-34.6533 5.115-11.1493 9.9292-21.9973 9.9292-34.352 0-1.5067 0-3.616-.301-4.8213 8.124-4.2187 24.9735 3.3146 24.9735 3.3146 12.938 4.2187 40.9204 25.6134 50.2478 29.832 4.5133-5.424 12.0354-13.2586 16.2478-17.4773l-6.0177-3.9173c-9.9292-6.0267-20.1593-11.752-30.3894-17.4774-23.1681-12.656-42.1239-8.136-51.7522-4.8213-3.9115 1.5067-7.2212 2.4107-7.2212 2.4107C470.4867-1 458.7522-.096 450.3274 2.0133c-30.9911 9.04-59.876 30.736-90.8672 68.4027-22.5664 29.5307-36.708 55.144-44.2301 80.456-5.7168 16.8747-7.5221 41.8853 6.6195 56.6507 12.0354 12.656 27.9823 9.944 39.115 5.424 24.3717-12.0534 46.3363-37.968 57.1681-67.8 2.4071-8.4374 5.416-21.0934.6018-30.4347zM475 21.2987c-3.3097 37.064-31.8938 58.76-39.115 60.568-4.2124.904-11.7346-.904-5.115-16.5734 9.6282-21.0933 26.1769-38.872 43.9291-47.912C475 18.888 475 19.792 475 21.2987zM645.6018 25.8187c-15.3452 8.7386-31.593 14.464-50.8496 12.656-5.416 6.0266-10.531 12.3546-15.3451 18.6826 27.3805 6.9307 56.2655-8.4373 72.2124-23.2026 17.1504-14.7654 25.876-33.448 25.876-33.448s-12.938 14.7653-31.8937 25.312zM353.1416 56.856h-20.1593l-11.4336 18.6827h20.1593z"/><path d="M594.4513 195.7707c-2.1062 1.5066-5.115.3013-4.2124-3.0134 2.708-8.7386 14.1416-26.216 14.1416-26.216l31.593-56.048h-21.6638c-.9026 1.808-3.3097 5.7254-3.3097 5.7254-.9027-1.808-3.9115-5.424-5.115-6.328-5.416-3.3147-12.9381-1.808-18.354 1.2053-23.1682 13.56-40.3186 40.68-53.5575 61.472 0 0-14.1416 23.504-21.9646 25.0107-6.0178.6026-5.416-7.8347-5.1151-9.6427 2.407-13.8613 7.823-27.12 13.239-39.1733 11.1327-7.8347 24.0707-18.08 35.8053-29.2294 25.2743-24.1066 46.6371-51.8293 49.646-57.856 0 0-3.3098.6027-7.2213.904-19.5575 27.12-59.2743 66.5947-71.3097 72.6214 5.416-12.9574 40.0177-74.4294 69.5044-103.96l4.5133-4.52c7.2212-6.9307 14.4425-14.1627 20.4602-15.368.6017 0 1.5044 0 2.1062 1.5066.3009 5.424-1.8053 9.3414-4.2124 14.1627l-3.3098 6.6293s4.5133-.904 7.5222-1.808c3.6106-6.6293 7.522-14.1626 6.0177-22.9013-.6018-2.712-2.4071-5.1227-5.115-5.424-8.7257-1.808-18.354 4.8213-26.177 10.2453l-.301.3014c-39.7168 31.0373-73.115 75.936-102.3008 136.8053-2.1062 1.5067-10.2301 3.616-11.7346 2.712 3.0089-6.0267 6.6195-13.8613 8.4248-22.6.301-2.4107.6018-5.1227.6018-7.5333 0-5.424-1.2035-10.2454-6.0177-13.8614-5.7168-2.712-12.6372-1.5066-17.1504.6027-20.7611 8.7387-36.4071 30.1333-47.8408 47.912-6.0177 11.1493-12.0353 23.2027-13.8407 37.064-1.2035 10.848 1.2036 17.7787 7.2213 21.0933 6.3186 3.3147 14.1416 0 17.4513-1.808 21.062-11.1493 35.8053-33.448 47.5398-53.9386.6018 0 6.9204-.3014 11.7345-1.5067h.301c-.301.904-2.708 8.4373-2.708 8.4373-7.5222 21.696-10.8319 36.4614-3.9115 45.2 9.9292 12.3547 26.4778-.3013 40.0177-17.176-3.0089 20.1894 7.522 23.504 15.646 21.696 9.0265-2.4106 19.2566-12.3546 24.0708-17.176-1.5045 6.0267-1.2036 16.272 7.2212 17.4774 5.7168 1.2053 9.9292-2.1094 15.0443-4.8214 17.7522-9.6426 38.8141-41.8853 44.531-51.2266h-7.5222c-7.823 11.4506-17.7522 26.8186-30.3894 34.352zm-159.1681-2.1094c-1.2036-1.808-1.5044-3.616-1.5044-5.424-.301-12.0533 12.938-34.0506 21.9646-45.8026 3.9115 8.4373 12.6371 13.8613 17.7522 16.272-6.3186 14.464-28.5841 45.8026-38.2124 34.9546zm42.1239-41.584c-.6018.3014-11.7345-3.3146-13.8407-13.56-1.8053-8.7386 4.2124-15.6693 10.23-19.2853 2.4071-2.1093 6.3186-2.712 9.0266-1.808 2.708 1.808 3.3097 4.8213 3.3097 8.136 0 2.1093-.3008 4.2187-.6017 6.0267v.3013c-1.8053 7.232-4.5133 14.1627-8.124 20.1893zm88.4602 37.6667l-2.1062 1.808c-3.0089 2.712-6.0177 5.424-9.6284 4.2187-.9026-.3014-1.8053-1.808-1.8053-2.712-.3009-7.5334 3.3098-14.7654 6.6195-21.696l.9027-1.808c9.6283-15.9707 20.761-34.9547 37.0088-47.912 2.708-2.1094 5.7168-3.616 9.0266-2.4107.6017.6027 1.5044 1.808 1.5044 3.0133 0 .3014-.3009 1.5067-.6018 1.808-4.5133 7.232-9.0265 15.0667-13.239 22.6-8.4247 14.464-16.8495 29.5307-27.6813 43.0907z"/><g><path d="M617.9204 224.3973c-6.3186 0-11.4337-5.1226-11.4337-11.4506 0-6.328 5.115-11.4507 11.4337-11.4507 6.3185 0 11.4336 5.1227 11.4336 11.4507.3009 6.328-4.8142 11.4506-11.4336 11.4506zm0-20.4906c-5.115 0-9.0266 4.2186-9.0266 9.04 0 4.8213 4.2124 9.04 9.0266 9.04 4.8141 0 9.0265-4.2187 9.0265-9.04 0-4.8214-3.9115-9.04-9.0265-9.04z"/><path d="M617.3186 212.0427c.6018 0 1.2035 0 1.5044-.3014.3009-.3013.3009-.6026.3009-1.2053s0-.904-.3009-1.2053c-.3009-.3014-.6018-.3014-1.5044-.3014h-1.2036v3.0134h1.2036m-1.2036 2.1093v4.52h-3.0088v-12.0533h4.8142c1.5044 0 2.708.3013 3.6106.904.6017.6026 1.2035 1.5066 1.2035 2.4106 0 .904-.3009 1.5067-.6018 2.1094-.3008.6026-.9026.904-1.8053 1.2053.301 0 .9027.3013 1.2036.6027.3009.3013.6017.904.9026 1.5066l1.8053 3.3147h-3.3097l-1.5044-3.0133c-.301-.6027-.6018-.904-.9027-1.2054-.3009-.3013-.6017-.3013-1.2035-.3013h-1.2036"/></g></g></svg>